<?xml version="1.0" encoding="UTF-8" standalone="no"?>
<svg
   xmlns:dc="http://purl.org/dc/elements/1.1/"
   xmlns:cc="http://creativecommons.org/ns#"
   xmlns:rdf="http://www.w3.org/1999/02/22-rdf-syntax-ns#"
   xmlns:svg="http://www.w3.org/2000/svg"
   xmlns="http://www.w3.org/2000/svg"
   viewBox="0 0 6534.1201 6534.1201"
   height="6534.1201"
   width="6534.1201"
   xml:space="preserve"
   id="svg2"
   version="1.1"><metadata
     id="metadata8"><rdf:RDF><cc:Work
         rdf:about=""><dc:format>image/svg+xml</dc:format><dc:type
           rdf:resource="http://purl.org/dc/dcmitype/StillImage" /></cc:Work></rdf:RDF></metadata><defs
     id="defs6"><clipPath
       id="clipPath18"
       clipPathUnits="userSpaceOnUse"><path
         id="path16"
         d="M 0,4900.595 H 4900.595 V 0 H 0 Z" /></clipPath></defs><g
     transform="matrix(1.3333333,0,0,-1.3333333,0,6534.12)"
     id="g10"><g
       id="g12"><g
         clip-path="url(#clipPath18)"
         id="g14"><g
           transform="translate(3590.5718,1866.8423)"
           id="g20"><path
             id="path22"
             style="fill:#003366;fill-opacity:1;fill-rule:nonzero;stroke:none"
             d="m 0,0 c 12.172,0 19.434,6.786 19.434,16.628 0,10.995 -6.086,15.678 -19.661,15.678 H -11.696 V 0 Z M -29.479,47.283 H 0.476 c 25.496,0 36.966,-10.068 36.966,-30.203 0,-14.727 -8.891,-22.917 -18.257,-26.673 L 46.333,-54.998 H 26.221 L 2.806,-14.502 H -11.696 V -54.998 H -29.479 Z M 75.133,-3.733 c 0,40.473 -30.202,73.481 -72.554,73.481 -42.351,0 -72.78,-30.655 -72.78,-73.481 0,-40.496 30.429,-73.482 72.78,-73.482 40.022,0 72.554,30.655 72.554,73.482 m -158.433,0 c 0,49.839 36.039,85.879 85.879,85.879 47.51,0 85.879,-36.04 85.879,-85.879 0,-49.863 -36.039,-85.879 -85.879,-85.879 -49.84,0 -85.879,36.016 -85.879,85.879 m -1004.03,5.781 c 0,103.95 92.622,198.998 202.937,309.315 l 122.252,122.259 c 81.104,81.105 251.443,251.521 180.411,412.238 -4.676,10.574 3.032,15.815 10.193,7.057 107.446,-131.382 70.891,-335.838 -140.356,-547.085 L -884.799,133.294 c -109.137,-109.138 -161.925,-162.166 -189.191,-294.478 -2.037,-9.896 -13.34,-9.86 -13.34,0 z m -397.196,418.543 c -124.265,-124.265 -154.27,-268.261 -55.453,-353.863 8.265,-7.163 3.972,-15.936 -6.839,-11.007 -123.228,56.166 -220.375,260.204 -9.106,471.478 l 422.903,422.529 c 109.137,109.135 161.945,161.122 189.21,293.433 2.039,9.898 13.341,9.861 13.341,0 V 1081.03 c 0,-103.948 -92.623,-198.998 -202.938,-309.313 z m -223.7,-167.429 c -107.447,131.382 -70.893,335.836 140.356,547.086 l 435.312,434.946 c 109.136,109.137 161.924,162.164 189.188,294.474 2.04,9.898 13.342,9.863 13.342,0 v -163.23 c 0,-103.95 -92.623,-198.999 -202.938,-309.313 l -384.655,-384.668 c -81.105,-81.104 -251.443,-251.518 -180.413,-412.238 4.676,-10.573 -3.031,-15.815 -10.192,-7.057 m -73.684,286.418 c -38.792,125.371 -13.458,317.571 168.243,499.271 l 480.579,480.797 c 109.136,109.137 162.061,161.345 189.326,293.655 2.039,9.898 13.341,9.863 13.341,0 v -162.13 c 0,-103.95 -92.622,-198.998 -202.938,-309.313 l -414.475,-414.357 c -192.265,-192.265 -222.562,-282.779 -221.652,-388.119 0.092,-11.159 -9.126,-10.451 -12.424,0.196 m 986.673,145.906 c 124.265,124.267 154.271,268.259 55.454,353.865 -8.266,7.163 -3.973,15.938 6.838,11.007 123.229,-56.164 220.375,-260.204 9.107,-471.478 l -160.5,-160.121 c -109.137,-109.136 -161.943,-161.122 -189.21,-293.434 -2.037,-9.897 -13.339,-9.861 -13.339,0 v 162.132 c 0,103.948 92.621,198.998 202.936,309.314 z m 297.382,-118.987 c 38.794,-125.371 13.459,-317.571 -168.24,-499.27 l -218.175,-218.39 c -6.105,-6.106 -12.003,-12.006 -17.761,-17.776 h -150.184 c 36.779,63.156 99.008,126.357 168.215,195.564 l 152.071,151.949 c 192.265,192.262 222.561,282.779 221.653,388.117 -0.094,11.161 9.126,10.453 12.421,-0.194 m -575.742,-1011.315 c -2.037,-9.897 -13.34,-9.864 -13.34,0 v 161.899 c 0,3.664 2.972,6.631 6.631,6.631 l 80.221,0.049 c -35.676,-47.159 -58.496,-95.722 -73.512,-168.579 m 356.134,4.484 c -208.733,35.208 -322.532,-64.129 -356.59,-157.184 -3.007,-8.225 -12.78,-6.988 -12.78,0.87 l -0.104,28.946 c 0,103.948 92.622,198.998 202.937,309.313 l 182.254,182.397 485.58,-83.518 c 0,0 138.706,-138.699 257.311,-257.421 228.709,269.829 366.727,618.962 366.727,1000.384 0,855.019 -693.129,1548.147 -1548.146,1548.147 -855.019,0 -1548.146,-693.128 -1548.146,-1548.147 0,-381.422 138.017,-730.555 366.726,-1000.384 118.606,118.722 257.313,257.421 257.313,257.421 l 551.172,94.731 c 255.262,44.428 318.971,-12.995 319.391,-97.514 0,-3.664 -2.973,-6.631 -6.632,-6.631 l -159.158,0.038 c -3.66,0 -6.632,-2.967 -6.632,-6.631 v -94.091 c 0,-3.665 2.972,-6.631 6.632,-6.631 h 159.289 c 3.664,0 6.631,-2.967 6.631,-6.63 0,0 -0.025,-308.106 -0.025,-313.779 0,-7.858 -9.775,-9.095 -12.786,-0.87 -34.055,93.055 -147.854,192.392 -356.587,157.184 0,0 -362.967,-62.722 -632.197,-109.08 276.488,-257.6 647.305,-415.279 1055.009,-415.279 407.702,0 778.52,157.679 1055.008,415.279 -269.23,46.358 -632.197,109.08 -632.197,109.08" /></g></g></g></g></svg>